<?xml version="1.0" encoding="UTF-8" standalone="no"?><!DOCTYPE svg PUBLIC "-//W3C//DTD SVG 1.1//EN" "http://www.w3.org/Graphics/SVG/1.1/DTD/svg11.dtd"><svg width="100%" height="100%" viewBox="0 0 32 64" version="1.1" xmlns="http://www.w3.org/2000/svg" xmlns:xlink="http://www.w3.org/1999/xlink" xml:space="preserve" xmlns:serif="http://www.serif.com/" style="fill-rule:evenodd;clip-rule:evenodd;stroke-linejoin:round;stroke-miterlimit:1.41421;"><path id="p-down" d="M2.541,64l4.409,-20.66c0.945,-3.781 2.829,-6.702 5.648,-8.77c2.35,-1.714 4.903,-2.57 7.667,-2.57c3.206,0 5.604,0.968 7.201,2.903c1.329,1.612 1.993,3.629 1.993,6.052c0,0.443 -0.015,0.804 -0.044,1.085c-0.029,0.266 -0.09,0.643 -0.177,1.131c-0.547,2.821 -1.728,5.276 -3.544,7.358c-2.411,2.778 -5.489,4.168 -9.24,4.168c-1.093,0 -2.076,-0.092 -2.948,-0.273c-0.913,-0.175 -1.934,-0.611 -3.057,-1.302l0.909,-4.189c1.433,0.782 2.18,1.188 2.239,1.22c0.988,0.486 2.061,0.729 3.212,0.729c2.082,0 3.899,-0.723 5.45,-2.171c1.506,-1.448 2.502,-3.294 2.99,-5.541c0.059,-0.237 0.104,-0.585 0.134,-1.041c0.03,-0.43 0.043,-0.659 0.043,-0.688c0,-1.759 -0.561,-3.146 -1.683,-4.168c-1.137,-1.034 -2.525,-1.549 -4.163,-1.549c-1.818,0 -3.509,0.663 -5.075,1.992c-1.905,1.607 -3.147,3.8 -3.723,6.575l-4.231,19.709l-4.01,0" style="fill:#fff;"/><path id="p-up" d="M2.541,32l4.409,-20.66c0.945,-3.781 2.829,-6.702 5.648,-8.77c2.35,-1.714 4.903,-2.57 7.667,-2.57c3.206,0 5.604,0.968 7.201,2.903c1.329,1.612 1.993,3.629 1.993,6.052c0,0.443 -0.015,0.804 -0.044,1.085c-0.029,0.266 -0.09,0.643 -0.177,1.131c-0.547,2.821 -1.728,5.276 -3.544,7.358c-2.411,2.778 -5.489,4.168 -9.24,4.168c-1.093,0 -2.076,-0.092 -2.948,-0.273c-0.913,-0.175 -1.934,-0.611 -3.057,-1.302l0.909,-4.189c1.433,0.782 2.18,1.188 2.239,1.22c0.988,0.486 2.061,0.729 3.212,0.729c2.082,0 3.899,-0.723 5.45,-2.171c1.506,-1.448 2.502,-3.294 2.99,-5.541c0.059,-0.237 0.104,-0.585 0.134,-1.041c0.03,-0.43 0.043,-0.659 0.043,-0.688c0,-1.759 -0.561,-3.146 -1.683,-4.168c-1.137,-1.034 -2.525,-1.549 -4.163,-1.549c-1.818,0 -3.509,0.663 -5.075,1.992c-1.905,1.607 -3.147,3.8 -3.723,6.575l-4.231,19.709l-4.01,0" style="fill:#505977;"/></svg>