<?xml version="1.0" encoding="UTF-8" standalone="no"?><!DOCTYPE svg PUBLIC "-//W3C//DTD SVG 1.1//EN" "http://www.w3.org/Graphics/SVG/1.1/DTD/svg11.dtd"><svg width="100%" height="100%" viewBox="0 0 18 18" version="1.1" xmlns="http://www.w3.org/2000/svg" xmlns:xlink="http://www.w3.org/1999/xlink" xml:space="preserve" xmlns:serif="http://www.serif.com/" style="fill-rule:evenodd;clip-rule:evenodd;stroke-linecap:round;stroke-linejoin:round;stroke-miterlimit:1.5;"><path d="M0.667,15.247c1.663,-1.165 2.961,-2.449 3.798,-3.884c0.374,-0.882 -0.182,-1.523 -1.407,-1.992c-1.992,-0.859 -2.098,-1.554 0,-2.058c1.704,-0.306 4.074,-0.592 8.034,-0.83c0.834,-0.044 1.649,-0.065 2.39,0c-5.527,0.433 -9.07,0.953 -4.482,1.826c3.315,0.638 5.946,1.521 8.067,3.054c5.832,4.214 -21.524,8.466 -16.4,3.884Z" style="stroke:#000;stroke-width:0.05px;"/><path d="M4.398,5.212c2.087,1.365 4.108,1.268 6.076,0c-0.645,-0.526 -0.324,-0.888 0.113,-1.559l-3.117,1.004l-3.072,-1.004c0.318,0.661 0.502,1.021 0,1.559Z" style="stroke:#000;stroke-width:0.05px;stroke-linecap:butt;stroke-miterlimit:1.41421;"/><path d="M12.311,2.663l0,2.538l-0.227,0.886l0.664,0l-0.153,-0.886l0,-2.538l-0.284,0" style="stroke:#000;stroke-width:0.05px;stroke-linecap:butt;stroke-miterlimit:1.41421;"/><path d="M1.192,2.473l6.254,-2.449l6.465,2.449l-6.465,2.01l-6.254,-2.01Z" style="stroke:#000;stroke-width:0.05px;"/></svg>